<?xml version="1.0" encoding="UTF-8"?>
<svg id="Layer_1" data-name="Layer 1" xmlns="http://www.w3.org/2000/svg" viewBox="0 0 1080 536.81">
  <defs>
    <style>
      .cls-1 {
        fill: #f7f6f2;
      }
    </style>
  </defs>
  <path class="cls-1" d="M145.66,125.5L30.35,411.31h242.61L389.53,125.5H145.66Zm34.16,264.54h-33.26l11.69-20.33,32.53,2.17-10.95,18.16Zm83.85-201.59l-34.89,2.34-11.22,23.53,35.04-2.76-12.54,28.67-36.25,2.94-10.42,21.82,62.69-9.61-58.35,104.11-32.43-2.03,36.83-64.08-59.52,5.73,67.41-138.18,.13-.27,67.13-3.26-13.6,31.05Z"/>
  <g>
    <path class="cls-1" d="M376.96,260.79l52.61-131.44,98.57,.11-9.28,23.18-70.04-.08-11.25,28.11,57.46,.06-9.28,23.18-57.46-.06-13.52,33.77,70.04,.08-9.28,23.18-98.57-.11Z"/>
    <path class="cls-1" d="M483.7,260.91l52.61-131.44,25.58,.03,14.98,87.31,84.84-87.21,25.58,.03-52.61,131.44-26.63-.03,31.42-78.5-75.25,78.45h-10.07s-12.41-78.56-12.41-78.56l-31.42,78.5-26.63-.03Z"/>
    <path class="cls-1" d="M647.07,261.08l52.61-131.44,98.57,.11-9.28,23.18-70.04-.08-11.25,28.11,57.46,.06-9.28,23.18-57.46-.06-13.52,33.77,70.04,.08-9.28,23.18-98.57-.11Z"/>
    <path class="cls-1" d="M753.81,261.2l52.61-131.44,63.75,.07c1.47,0,3.42,.05,5.87,.14,2.44,.09,4.58,.29,6.42,.6,8.53,1.23,14.89,3.82,19.07,7.78,4.18,3.96,6.44,8.94,6.77,14.94,.33,6-.98,12.68-3.93,20.04-4.41,11.01-11.32,20.43-20.75,28.24-9.42,7.81-21.21,12.62-35.36,14.44l-12.88,.72-35.23-.04-17.83,44.54-28.52-.03Zm55.63-67.7l33.97,.04c1.47,0,3.1-.06,4.9-.18,1.79-.12,3.5-.36,5.12-.72,4.21-.91,7.8-2.44,10.76-4.6,2.96-2.16,5.37-4.56,7.24-7.21,1.86-2.65,3.27-5.16,4.22-7.53,.95-2.37,1.55-4.88,1.81-7.53,.25-2.65-.23-5.05-1.47-7.21-1.23-2.16-3.59-3.7-7.07-4.62-1.32-.37-2.83-.61-4.53-.74-1.7-.12-3.28-.19-4.75-.19l-33.97-.04-16.22,40.53Zm29.51,67.79l-8.37-53.52,31.33-4.9,9.33,58.45-32.3-.03Z"/>
    <path class="cls-1" d="M939.15,264.14c-9.51-.01-17.97-1.5-25.39-4.46-7.42-2.96-13.27-7.33-17.56-13.12-4.29-5.79-6.64-12.94-7.04-21.47-.4-8.52,1.63-18.35,6.09-29.49,5.82-14.54,13.97-26.91,24.45-37.09,10.48-10.18,22.19-17.95,35.13-23.29,12.94-5.34,25.99-8.01,39.13-7.99,19.43,.02,33.14,3.96,41.11,11.82,7.97,7.86,10.97,18.98,9,33.34l-30.61,3.62c.34-7.67-1.66-13.8-6.01-18.41s-11.33-6.94-20.96-7.01c-9.53-.13-18.22,1.66-26.06,5.36-7.85,3.71-14.73,8.96-20.63,15.78-5.91,6.81-10.69,14.78-14.34,23.91-3.65,9.13-5.23,17.04-4.73,23.74,.5,6.7,3.19,11.91,8.07,15.62,4.88,3.72,12.08,5.65,21.61,5.78,6.45,.13,12.73-.84,18.84-2.9,6.1-2.06,11.87-5.31,17.28-9.75,5.41-4.44,10.28-10.12,14.59-17.06l-23.91-.03,7.67-19.17,54.32,.06c-.18,.79-.63,2.19-1.37,4.2-.73,2.01-1.16,3.17-1.28,3.47-5.04,12.6-12.45,23.76-22.22,33.49-9.77,9.73-21.1,17.34-34,22.84-12.9,5.5-26.62,8.24-41.16,8.22Z"/>
    <path class="cls-1" d="M317.24,409.99l52.61-131.44,92.27,.1-9.94,24.83-63.75-.07-11.4,28.48,51.17,.06-9.94,24.83-51.17-.06-21.34,53.3-28.52-.03Z"/>
    <path class="cls-1" d="M471.75,412.9c-12.16-.01-22-2.17-29.51-6.47-7.51-4.3-12.29-10.35-14.35-18.14-2.06-7.79-.98-16.95,3.24-27.48l32.81-81.96,29.01-.15-32.81,81.97c-1.73,4.32-2.46,8.25-2.2,11.78,.27,3.53,1.37,6.58,3.32,9.14,1.95,2.56,4.62,4.52,8.02,5.9,3.4,1.37,7.34,2.06,11.81,2.07,4.61,0,9.17-.69,13.69-2.08,4.51-1.39,8.74-3.37,12.7-5.92,3.96-2.55,7.47-5.59,10.52-9.12,3.05-3.53,5.44-7.42,7.14-11.68l32.81-81.97,28.94,.03-32.88,82.15c-4.21,10.53-10.47,19.68-18.76,27.47-8.29,7.78-17.91,13.81-28.85,18.1-10.94,4.28-22.5,6.41-34.66,6.4Z"/>
    <path class="cls-1" d="M546.67,410.24l52.61-131.44,28.94,.03,30.57,87.7,35.07-87.62,28.94,.03-52.61,131.44-28.94-.03-30.57-87.69-35.07,87.62-28.94-.03Z"/>
    <path class="cls-1" d="M682.56,410.38l52.61-131.44,48.86,.05c1.19,0,3.62,.04,7.3,.1,3.68,.07,7.16,.28,10.44,.65,11.65,1.29,20.49,4.98,26.51,11.08,6.02,6.09,9.36,13.83,10.01,23.2,.65,9.38-1.25,19.63-5.71,30.77-4.46,11.14-10.76,21.39-18.92,30.75-8.15,9.37-17.68,17.09-28.57,23.16-10.89,6.08-22.68,9.74-35.35,11.01-3.57,.36-7.22,.57-10.95,.63-3.73,.06-6.19,.08-7.38,.08l-48.86-.05Zm38.29-23.33l19.92,.02c1.89,0,4.46-.04,7.71-.13,3.25-.09,6.26-.34,9.01-.77,7.03-1.15,13.47-3.82,19.31-8.01,5.84-4.19,10.94-9.24,15.29-15.14,4.35-5.9,7.79-11.98,10.3-18.25,2.63-6.57,4.09-12.81,4.4-18.72,.3-5.9-.83-10.9-3.39-14.98-2.56-4.08-6.81-6.67-12.73-7.77-2.39-.49-5.18-.77-8.37-.83-3.19-.06-5.73-.1-7.62-.1l-19.92-.02-33.9,84.7Z"/>
    <path class="cls-1" d="M870.41,413.33c-11.18-.01-20.58-1.74-28.19-5.19-7.61-3.45-13.01-8.38-16.21-14.81-3.2-6.43-3.79-14.08-1.77-22.97l31.31-3.8c-.92,7.55,1.08,13.37,6.02,17.45,4.94,4.09,11.6,6.13,19.99,6.14,4.68,0,9.48-.63,14.4-1.9,4.92-1.27,9.29-3.16,13.12-5.65,3.83-2.49,6.48-5.56,7.94-9.21,.54-1.34,.83-2.63,.87-3.88,.04-1.25-.24-2.42-.85-3.52-.61-1.1-1.68-2.13-3.21-3.11-1.54-.98-3.61-1.86-6.23-2.66l-35.2-10.08c-2.64-.73-5.64-1.77-8.98-3.11-3.34-1.34-6.34-3.26-8.97-5.76-2.64-2.5-4.34-5.8-5.11-9.91-.77-4.11,.1-9.3,2.61-15.57,3.53-8.82,9.02-16.15,16.46-21.99,7.44-5.84,16-10.18,25.67-13.03,9.67-2.85,19.67-4.24,29.99-4.17,10.37,.13,19.04,1.7,26.03,4.69,6.99,2.99,12.1,7.33,15.35,13.03,3.24,5.7,4.45,12.65,3.61,20.87l-32.65,4.53c.58-4.26-.04-7.85-1.88-10.78-1.84-2.92-4.53-5.15-8.08-6.67-3.55-1.53-7.57-2.35-12.07-2.48-4.43-.13-8.85,.4-13.27,1.58-4.43,1.18-8.33,2.9-11.71,5.15-3.38,2.25-5.69,4.92-6.94,8.03-1.15,2.86-1.07,5.19,.25,6.99,1.31,1.8,3.28,3.25,5.92,4.34,2.64,1.1,5.42,2.01,8.34,2.75l23.73,6.24c3.55,.92,7.4,2.12,11.56,3.62,4.16,1.5,7.89,3.57,11.2,6.22,3.31,2.65,5.51,6.14,6.62,10.46,1.1,4.32,.32,9.8-2.33,16.43-2.83,7.06-6.99,13.22-12.48,18.48-5.5,5.26-11.8,9.61-18.91,13.04-7.11,3.43-14.62,6-22.54,7.69-7.92,1.7-15.72,2.54-23.41,2.53Z"/>
  </g>
</svg>